<svg xmlns="http://www.w3.org/2000/svg" viewBox="0 0 340 340">
  <defs>
    <style>
      .cls-1 {
        fill: red;
      }

      .cls-2 {
        fill: #fff;
      }
    </style>
  </defs>
  <title>Asset 20</title>
  <g id="Layer_2" data-name="Layer 2">
    <g id="Layer_1-2" data-name="Layer 1">
      <g>
        <circle class="cls-1" cx="170" cy="170" r="170"/>
        <g>
          <path class="cls-2" d="M138.8,186.5v40.4h86.3V99.3H138.8v42.3H128.3V83.7H235.6V97.9h9.8V256.7H138V242.5h-9.7v-56Z"/>
          <polygon class="cls-2" points="164.1 166.7 155.1 175.7 145.9 166.5 136.7 175.7 127.6 166.7 118.6 175.7 109.4 166.5 100.2 175.7 91.2 166.7 82.8 175 110.1 202.3 100.2 212.2 53.8 165.8 100.2 119.4 110.1 129.3 82.8 156.6 91.2 164.9 100.2 155.9 109.4 165.1 118.6 155.9 127.6 164.9 136.7 155.9 145.9 165.1 155.1 155.9 164.1 164.9 173.1 155.9 183.1 165.8 173.1 175.7 164.1 166.7"/>
        </g>
      </g>
    </g>
  </g>
</svg>
