<svg xmlns="http://www.w3.org/2000/svg" viewBox="0 0 336.4 336.4">
  <defs>
    <style>
      .cls-1 {
        fill: blue;
      }

      .cls-2 {
        fill: #fff;
      }
    </style>
  </defs>
  <title>Asset 21</title>
  <g id="Layer_2" data-name="Layer 2">
    <g id="Layer_1-2" data-name="Layer 1">
      <g>
        <circle class="cls-1" cx="168.2" cy="168.2" r="168.2"/>
        <polygon class="cls-2" points="248.9 169.7 232.9 185.7 216.7 169.5 200.4 185.7 184.4 169.7 168.4 185.7 152.2 169.5 135.9 185.7 119.9 169.7 105.2 184.4 153.5 232.7 135.9 250.2 53.9 168.2 135.9 86.1 153.5 103.7 105.2 151.9 119.9 166.6 135.9 150.6 152.2 166.9 168.4 150.6 184.4 166.6 200.4 150.6 216.7 166.9 232.9 150.6 248.9 166.6 264.9 150.6 282.5 168.2 264.9 185.7 248.9 169.7"/>
      </g>
    </g>
  </g>
</svg>
