<svg xmlns="http://www.w3.org/2000/svg" viewBox="0 0 340 340">
  <defs>
    <style>
      .cls-1 {
        fill: #fff;
      }
    </style>
  </defs>
  <title>Asset 16</title>
  <g id="Layer_2" data-name="Layer 2">
    <g id="Layer_1-2" data-name="Layer 1">
      <g>
        <circle cx="170" cy="170" r="170"/>
        <g id="yfMOBH">
          <g>
            <path class="cls-1" d="M259.1,242.2v17.3H80.8V242.2H259.1Z"/>
            <path class="cls-1" d="M80.8,242.2H63.5V117.7H80.8V242.3Z"/>
            <path class="cls-1" d="M259.2,242.3V117.8h17.3V242.2H259.2Z"/>
            <path class="cls-1" d="M134.6,81.3v-17h70.6v17Z"/>
            <path class="cls-1" d="M116.5,99.6v17.3H81.1V99.7h35.4Z"/>
            <path class="cls-1" d="M223.4,99.6h35.4v17.3H223.5V99.6Z"/>
            <path class="cls-1" d="M116.5,99.7V81.9h17.4V99.6H116.5Z"/>
            <path class="cls-1" d="M223.5,99.6H206V82h17.4V99.6Z"/>
            <path class="cls-1" d="M129.7,170h-12v29.8h12Zm92.4-23.2h-12v29.8h12Zm-79.4,54.1H130.8v12h11.9Zm52.8-79H144.2v12h51.3Zm-.2,92.2H144v12h51.3Zm13.5-79h-12v12h12Zm12.9,53.5h-12v12h12Zm11-11.8H198.5v12h34.2ZM118.1,158.5h12v-12h-12Zm-11,11.8h34.2v-12H107.1Z"/>
          </g>
        </g>
      </g>
    </g>
  </g>
</svg>
