<?xml version="1.0" standalone="no"?>
<!DOCTYPE svg PUBLIC "-//W3C//DTD SVG 20010904//EN"
 "http://www.w3.org/TR/2001/REC-SVG-20010904/DTD/svg10.dtd">
<svg version="1.0" xmlns="http://www.w3.org/2000/svg"
 width="256.000000pt" height="256.000000pt" viewBox="0 0 256.000000 256.000000"
 preserveAspectRatio="xMidYMid meet">
<metadata>
Created by potrace 1.11, written by Peter Selinger 2001-2013
</metadata>
<g transform="translate(0.000000,256.000000) scale(0.100000,-0.100000)"
fill="#000000" stroke="none">
<path d="M0 1280 l0 -1280 1280 0 1280 0 0 1280 0 1280 -1280 0 -1280 0 0
-1280z m1466 1115 c233 -41 423 -137 592 -299 184 -176 293 -381 337 -630 38
-221 -1 -490 -101 -688 -72 -144 -212 -310 -343 -407 -395 -293 -947 -293
-1342 0 -87 64 -213 197 -270 284 -195 295 -241 652 -128 990 94 282 321 535
591 659 206 95 448 128 664 91z"/>
<path d="M1165 2383 c-271 -32 -482 -136 -675 -332 -187 -190 -284 -395 -312
-663 -25 -234 28 -468 155 -684 73 -124 247 -298 371 -371 216 -127 450 -180
683 -155 177 19 315 64 469 155 124 73 298 247 371 371 91 154 136 292 155
468 25 234 -28 468 -155 684 -73 124 -247 298 -371 371 -214 126 -466 183
-691 156z m357 -131 c185 -50 333 -134 464 -266 131 -131 214 -276 266 -464
31 -112 31 -372 0 -484 -52 -188 -135 -333 -266 -464 -131 -131 -276 -214
-464 -266 -112 -31 -372 -31 -484 0 -188 52 -333 135 -464 266 -182 182 -279
402 -291 658 -23 498 304 921 797 1029 114 25 330 21 442 -9z"/>
<path d="M1109 2224 c-151 -27 -333 -111 -439 -203 l-35 -30 106 -1 c104 0
106 0 117 26 24 50 52 54 422 54 370 0 398 -4 422 -54 11 -26 13 -26 117 -26
l106 1 -35 30 c-62 54 -190 127 -277 159 -161 58 -342 74 -504 44z"/>
<path d="M896 2014 c-14 -14 -16 -94 -16 -734 0 -640 2 -720 16 -734 13 -14
62 -16 384 -16 322 0 371 2 384 16 14 14 16 94 16 734 0 640 -2 720 -16 734
-13 14 -62 16 -384 16 -322 0 -371 -2 -384 -16z m129 -44 c22 -25 13 -68 -17
-79 -54 -20 -94 27 -64 74 20 30 56 33 81 5z m113 -17 c13 -26 4 -43 -23 -43
-27 0 -40 26 -24 46 16 19 37 17 47 -3z"/>
<path d="M966 1945 c-3 -9 1 -18 10 -22 19 -7 39 11 30 26 -10 16 -33 13 -40
-4z"/>
<path d="M600 1766 c0 -119 -4 -197 -10 -201 -7 -4 -10 59 -10 182 l-1 188
-35 -40 c-134 -150 -224 -399 -224 -615 0 -216 90 -465 224 -615 l35 -40 1
190 c0 127 4 185 10 175 5 -8 10 -99 10 -202 l0 -188 125 0 125 0 0 680 -1
680 -124 0 -125 0 0 -194z"/>
<path d="M1710 1280 l0 -680 125 0 125 0 0 192 0 191 -25 -23 c-14 -13 -28
-21 -31 -17 -4 3 67 80 156 171 l162 165 -26 34 c-37 48 -32 57 9 17 l35 -34
0 31 c0 59 -30 203 -60 286 -33 91 -107 218 -164 282 l-35 40 -1 -183 c0 -120
-3 -181 -10 -177 -6 4 -10 80 -10 196 l0 189 -125 0 -125 0 0 -680z"/>
<path d="M2108 1133 l-128 -128 0 -190 1 -190 35 40 c99 111 181 291 210 456
27 158 27 158 -118 12z"/>
<path d="M670 539 c151 -131 397 -219 610 -219 213 0 459 88 610 219 l35 30
-106 1 c-104 0 -106 0 -117 -26 -24 -50 -52 -54 -422 -54 -370 0 -398 4 -422
54 -11 26 -13 26 -117 26 l-106 -1 35 -30z"/>
</g>
</svg>
